HIERARCHY
ROOT Hips
{
  OFFSET 5.84602e-005 68.8428 3.50346
  CHANNELS 6 Xposition Yposition Zposition Zrotation Xrotation Yrotation
  JOINT Spine
  {
    OFFSET 0 8.597 -4.6522
    CHANNELS 3 Zrotation Xrotation Yrotation
    JOINT Spine1
    {
      OFFSET 0 7.8454 0.4098
      CHANNELS 3 Zrotation Xrotation Yrotation
      JOINT Spine2
      {
        OFFSET 0 9.7078 -2.1609
        CHANNELS 3 Zrotation Xrotation Yrotation
        JOINT Neck
        {
          OFFSET 0 21.8761 -0.4549
          CHANNELS 3 Zrotation Xrotation Yrotation
          JOINT Head
          {
            OFFSET 0 12.3537 3.3602
            CHANNELS 3 Zrotation Xrotation Yrotation
            End Site
            {
              OFFSET 0.0001 18.9506 0.5657
            }
          }
        }
        JOINT LeftShoulder
        {
          OFFSET 2.2086 21.1115 7.2329
          CHANNELS 3 Zrotation Xrotation Yrotation
          JOINT LeftArm
          {
            OFFSET 13.1193 3.0282 -4.8998
            CHANNELS 3 Zrotation Xrotation Yrotation
            JOINT LeftForeArm
            {
              OFFSET 27.4081 -0.0973053 -0.2375
              CHANNELS 3 Zrotation Xrotation Yrotation
              JOINT LeftHand
              {
                OFFSET 22.8641 0.0662994 -0.1369
                CHANNELS 3 Zrotation Xrotation Yrotation
                JOINT LeftHandIndex1
                {
                  OFFSET 8.8614 0.775009 2.4612
                  CHANNELS 3 Zrotation Xrotation Yrotation
                  JOINT LeftHandIndex2
                  {
                    OFFSET 3.3146 -0.808304 0.5841
                    CHANNELS 3 Zrotation Xrotation Yrotation
                    JOINT LeftHandIndex3
                    {
                      OFFSET 2.2628 -0.552002 0.3989
                      CHANNELS 3 Zrotation Xrotation Yrotation
                      End Site
                      {
                        OFFSET 1.6102 -0.4807 0.2612
                      }
                    }
                  }
                }
                JOINT LeftHandMiddle1
                {
                  OFFSET 8.9937 0.895004 0.2143
                  CHANNELS 3 Zrotation Xrotation Yrotation
                  JOINT LeftHandMiddle2
                  {
                    OFFSET 4.0984 0.0113983 -0.0242
                    CHANNELS 3 Zrotation Xrotation Yrotation
                    JOINT LeftHandMiddle3
                    {
                      OFFSET 2.2716 0.00689697 -0.0138001
                      CHANNELS 3 Zrotation Xrotation Yrotation
                      End Site
                      {
                        OFFSET 2.0404 -0.1441 0.0027
                      }
                    }
                  }
                }
                JOINT LeftHandRing1
                {
                  OFFSET 8.5234 0.597198 -2.0164
                  CHANNELS 3 Zrotation Xrotation Yrotation
                  JOINT LeftHandRing2
                  {
                    OFFSET 3.7188 -0.188293 -0.2328
                    CHANNELS 3 Zrotation Xrotation Yrotation
                    JOINT LeftHandRing3
                    {
                      OFFSET 2.1191 -0.106598 -0.1332
                      CHANNELS 3 Zrotation Xrotation Yrotation
                      End Site
                      {
                        OFFSET 1.8737 -0.2304 -0.0886
                      }
                    }
                  }
                }
                JOINT LeftHandPinky1
                {
                  OFFSET 7.9094 -0.601089 -3.4825
                  CHANNELS 3 Zrotation Xrotation Yrotation
                  JOINT LeftHandPinky2
                  {
                    OFFSET 2.2874 -0.477005 -0.6314
                    CHANNELS 3 Zrotation Xrotation Yrotation
                    JOINT LeftHandPinky3
                    {
                      OFFSET 1.6774 -0.349396 -0.4633
                      CHANNELS 3 Zrotation Xrotation Yrotation
                      End Site
                      {
                        OFFSET 1.4888 -0.4091 -0.3416
                      }
                    }
                  }
                }
                JOINT LeftHandThumb1
                {
                  OFFSET 1.833 -1.3875 1.3896
                  CHANNELS 3 Zrotation Xrotation Yrotation
                  JOINT LeftHandThumb2
                  {
                    OFFSET 3.4129 -1.121 2.5732
                    CHANNELS 3 Zrotation Xrotation Yrotation
                    JOINT LeftHandThumb3
                    {
                      OFFSET 2.2474 -0.804199 1.6192
                      CHANNELS 3 Zrotation Xrotation Yrotation
                      End Site
                      {
                        OFFSET 1.6527 -0.5689 1.1317
                      }
                    }
                  }
                }
              }
            }
          }
        }
        JOINT RightShoulder
        {
          OFFSET -2.2086 21.1115 7.2329
          CHANNELS 3 Zrotation Xrotation Yrotation
          JOINT RightArm
          {
            OFFSET -13.1216 3.0287 -4.9007
            CHANNELS 3 Zrotation Xrotation Yrotation
            JOINT RightForeArm
            {
              OFFSET -27.4081 -0.0973053 -0.2375
              CHANNELS 3 Zrotation Xrotation Yrotation
              JOINT RightHand
              {
                OFFSET -22.8641 0.0664063 -0.1369
                CHANNELS 3 Zrotation Xrotation Yrotation
                JOINT RightHandIndex1
                {
                  OFFSET -8.8614 0.774994 2.4612
                  CHANNELS 3 Zrotation Xrotation Yrotation
                  JOINT RightHandIndex2
                  {
                    OFFSET -3.3146 -0.808304 0.5841
                    CHANNELS 3 Zrotation Xrotation Yrotation
                    JOINT RightHandIndex3
                    {
                      OFFSET -2.2628 -0.552002 0.3989
                      CHANNELS 3 Zrotation Xrotation Yrotation
                      End Site
                      {
                        OFFSET -1.6102 -0.4807 0.2612
                      }
                    }
                  }
                }
                JOINT RightHandMiddle1
                {
                  OFFSET -8.9937 0.894989 0.2143
                  CHANNELS 3 Zrotation Xrotation Yrotation
                  JOINT RightHandMiddle2
                  {
                    OFFSET -4.0984 0.0113983 -0.0242
                    CHANNELS 3 Zrotation Xrotation Yrotation
                    JOINT RightHandMiddle3
                    {
                      OFFSET -2.2716 0.00691223 -0.0138001
                      CHANNELS 3 Zrotation Xrotation Yrotation
                      End Site
                      {
                        OFFSET -2.0404 -0.1441 0.0027
                      }
                    }
                  }
                }
                JOINT RightHandRing1
                {
                  OFFSET -8.5234 0.597198 -2.0164
                  CHANNELS 3 Zrotation Xrotation Yrotation
                  JOINT RightHandRing2
                  {
                    OFFSET -3.7188 -0.188309 -0.2328
                    CHANNELS 3 Zrotation Xrotation Yrotation
                    JOINT RightHandRing3
                    {
                      OFFSET -2.1191 -0.106598 -0.1332
                      CHANNELS 3 Zrotation Xrotation Yrotation
                      End Site
                      {
                        OFFSET -1.8737 -0.2304 -0.0886
                      }
                    }
                  }
                }
                JOINT RightHandPinky1
                {
                  OFFSET -7.9094 -0.601105 -3.4825
                  CHANNELS 3 Zrotation Xrotation Yrotation
                  JOINT RightHandPinky2
                  {
                    OFFSET -2.2874 -0.477005 -0.6314
                    CHANNELS 3 Zrotation Xrotation Yrotation
                    JOINT RightHandPinky3
                    {
                      OFFSET -1.6774 -0.349396 -0.4633
                      CHANNELS 3 Zrotation Xrotation Yrotation
                      End Site
                      {
                        OFFSET -1.4888 -0.4091 -0.3416
                      }
                    }
                  }
                }
                JOINT RightHandThumb1
                {
                  OFFSET -1.833 -1.38751 1.3896
                  CHANNELS 3 Zrotation Xrotation Yrotation
                  JOINT RightHandThumb2
                  {
                    OFFSET -3.41299 -1.12099 2.5732
                    CHANNELS 3 Zrotation Xrotation Yrotation
                    JOINT RightHandThumb3
                    {
                      OFFSET -2.24741 -0.804108 1.6192
                      CHANNELS 3 Zrotation Xrotation Yrotation
                      End Site
                      {
                        OFFSET -1.6527 -0.5689 1.1317
                      }
                    }
                  }
                }
              }
            }
          }
        }
      }
    }
  }
  JOINT RightUpLeg
  {
    OFFSET -9.1966 3.8861 -0.7581
    CHANNELS 3 Zrotation Xrotation Yrotation
    JOINT RightLeg
    {
      OFFSET -0.7359 -41.0265 0
      CHANNELS 3 Zrotation Xrotation Yrotation
      JOINT RightFoot
      {
        OFFSET 0 -40.2855 0
        CHANNELS 3 Zrotation Xrotation Yrotation
        JOINT RightToeBase
        {
          OFFSET 0 -5.6122 11.7359
          CHANNELS 3 Zrotation Xrotation Yrotation
          End Site
          {
            OFFSET 0 0 7.8731
          }
        }
      }
    }
  }
  JOINT LeftUpLeg
  {
    OFFSET 9.1965 3.8864 -0.7581
    CHANNELS 3 Zrotation Xrotation Yrotation
    JOINT LeftLeg
    {
      OFFSET 0.7359 -41.0268 0
      CHANNELS 3 Zrotation Xrotation Yrotation
      JOINT LeftFoot
      {
        OFFSET 0 -40.2855 0
        CHANNELS 3 Zrotation Xrotation Yrotation
        JOINT LeftToeBase
        {
          OFFSET 0 -5.6122 11.7359
          CHANNELS 3 Zrotation Xrotation Yrotation
          End Site
          {
            OFFSET 0 0 7.8731
          }
        }
      }
    }
  }
}
MOTION
Frames:	6
Frame Time:	0.0333333
-21.1849 0.0331104 -23.9381 -90.0421 82.8858 0.0338271 10.0659 7.15098 0.551977 20.3024 14.2872 -0.178001 20.3024 14.2872 -0.177985 -3.53834 -16.4887 19.907 -1.08794 -42.526 7.97384 3.88833 3.14794 41.6322 1.34426 33.0789 -31.2766 48.5886 -31.6031 -56.93 17.3064 1.0624 11.8116 1.09332e-015 0 7.95139e-015 1.09332e-015 0 4.77083e-015 1.39149e-015 -3.97569e-016 4.77083e-015 1.09332e-015 0 7.95139e-015 -0.0146054 -8.856e-005 -3.43205e-006 1.98785e-016 0 -3.18055e-015 1.09332e-015 0 7.95139e-015 -0.0187577 -0.00117602 5.59988e-005 -3.97569e-016 3.97569e-016 -4.77083e-015 1.09332e-015 0 7.95139e-015 -0.012299 -0.00325626 0.000676074 1.98785e-016 -7.95139e-016 -3.18055e-015 1.09332e-015 0 7.95139e-015 1.09332e-015 0 4.77083e-015 1.39149e-015 -3.97569e-016 4.77083e-015 0.168071 1.59823 14.6975 -11.371 -35.4172 -60.7946 45.0799 17.9141 -0.0806929 15.5046 -2.87405 -2.41662 1.53605e-007 2.63547e-007 -9.72033e-008 -7.68024e-008 -1.31773e-007 4.86016e-008 1.53605e-007 2.63547e-007 -9.72033e-008 1.53605e-007 2.63547e-007 -9.72033e-008 0.0150293 -9.02705e-005 4.08104e-006 1.53604e-007 2.63534e-007 -9.7238e-008 1.53605e-007 2.63547e-007 -9.72033e-008 0.0189965 -0.00119244 -6.22617e-005 -5.82398e-007 -2.08952e-007 -2.43574e-006 1.53605e-007 2.63547e-007 -9.72033e-008 0.0122619 -0.00324499 -0.000674871 -5.83025e-007 -2.0899e-007 -2.43579e-006 1.53605e-007 2.63547e-007 -9.72033e-008 -7.68024e-008 -1.31773e-007 4.86016e-008 1.53605e-007 2.63547e-007 -9.72033e-008 66.0373 -86.0588 93.0277 71.7099 41.7359 -73.3635 16.0568 4.60153 13.0473 -8.82781e-032 3.18055e-015 1.59028e-015 0.829869 -64.3959 23.1973 31.0487 64.3941 -28.8723 -2.51405 15.0861 -2.41696 6.30641e-006 3.49104e-006 2.29596e-006 
-21.1563 0.0330519 -23.8887 -90.0414 83.1361 0.0334362 10.0781 7.05163 0.641791 20.3103 14.1058 0.0192955 20.3103 14.1058 0.0192721 -3.44896 -16.4154 19.8304 -1.13802 -42.3969 7.82255 3.81021 3.05753 41.1227 1.34427 33.0788 -31.2766 48.6401 -31.6687 -57.0158 17.3064 1.0624 11.8116 2.79071e-008 2.11395e-007 8.38464e-009 -2.79071e-008 -2.11395e-007 -8.38464e-009 2.79071e-008 2.11395e-007 8.38464e-009 2.79071e-008 2.11395e-007 8.38464e-009 -0.0146006 -8.88996e-005 2.17244e-007 2.79065e-008 2.11394e-007 8.41155e-009 2.79071e-008 2.11395e-007 8.38464e-009 -0.0187607 -0.0011764 5.43875e-005 2.79065e-008 2.11394e-007 8.41897e-009 2.79071e-008 2.11395e-007 8.38464e-009 -0.0122734 -0.00324956 0.000679629 2.79081e-008 2.11394e-007 8.40652e-009 2.79071e-008 2.11395e-007 8.38464e-009 -2.79071e-008 -2.11395e-007 -8.38464e-009 2.79071e-008 2.11395e-007 8.38464e-009 0.804226 1.92131 14.1174 -11.3614 -35.5106 -60.6763 44.7335 17.2834 -0.079569 15.9247 -2.86275 -2.40532 -2.53586e-007 -4.3935e-007 1.65518e-007 -2.02869e-007 -3.5148e-007 1.32414e-007 -2.53586e-007 -4.3935e-007 1.65518e-007 -2.53586e-007 -4.3935e-007 1.65518e-007 0.0149917 -9.0075e-005 4.40179e-006 -2.53585e-007 -4.39328e-007 1.65575e-007 -2.53586e-007 -4.3935e-007 1.65518e-007 0.0189887 -0.00119242 -6.12168e-005 -2.53583e-007 -4.39323e-007 1.65593e-007 -2.53586e-007 -4.3935e-007 1.65518e-007 0.0123053 -0.00325745 -0.000675105 1.18389e-006 -9.07848e-007 1.0323e-006 -2.53586e-007 -4.3935e-007 1.65518e-007 -2.02869e-007 -3.5148e-007 1.32414e-007 -2.53586e-007 -4.3935e-007 1.65518e-007 67.697 -86.1718 94.6086 71.7319 41.7407 -73.3819 15.9826 4.64853 13.1493 -2.65703e-006 1.63344e-006 3.67554e-006 0.882692 -64.5588 23.2708 30.8528 64.293 -28.6967 -2.50478 15.0963 -2.42717 1.40435e-006 -1.38055e-006 -5.03276e-007 
-21.1276 0.0329933 -23.8391 -90.0409 83.3864 0.0330634 10.0901 6.95227 0.731688 20.3182 13.9245 0.216612 20.3182 13.9245 0.216598 -3.35938 -16.3424 19.7536 -1.18756 -42.2677 7.6716 3.73128 2.96781 40.6131 1.34427 33.0788 -31.2766 48.6915 -31.7345 -57.1015 17.3064 1.06241 11.8116 -2.08724e-015 7.95139e-016 -1.59028e-015 2.26789e-007 -5.07896e-008 -8.99137e-007 -3.97569e-016 -3.97569e-016 -1.59028e-015 -2.08724e-015 7.95139e-016 -1.59028e-015 -0.0146022 -8.84156e-005 -3.12059e-006 1.49089e-015 0 4.77083e-015 -2.08724e-015 7.95139e-016 -1.59028e-015 -0.018752 -0.00117596 5.89324e-005 -1.19271e-015 0 1.59028e-015 -2.08724e-015 7.95139e-016 -1.59028e-015 -0.0122788 -0.00325022 0.000674688 5.96354e-016 -3.97569e-016 -0 -2.08724e-015 7.95139e-016 -1.59028e-015 2.26789e-007 -5.07896e-008 -8.99137e-007 -3.97569e-016 -3.97569e-016 -1.59028e-015 1.44355 2.2378 13.5338 -11.3517 -35.604 -60.5578 44.3807 16.6644 -0.0786054 16.3447 -2.85137 -2.39408 1.88367e-007 3.29588e-007 -1.26701e-007 2.63714e-007 4.61424e-007 -1.77381e-007 1.88367e-007 3.29588e-007 -1.26701e-007 1.88367e-007 3.29588e-007 -1.26701e-007 0.0149879 -8.97423e-005 -3.82093e-006 1.88367e-007 3.29572e-007 -1.26744e-007 1.88367e-007 3.29588e-007 -1.26701e-007 0.0189916 -0.0011913 -5.32841e-005 1.88365e-007 3.29567e-007 -1.26757e-007 1.88367e-007 3.29588e-007 -1.26701e-007 0.0122455 -0.00324181 -0.000673109 1.88361e-007 3.29576e-007 -1.26741e-007 1.88367e-007 3.29588e-007 -1.26701e-007 2.63714e-007 4.61424e-007 -1.77381e-007 1.88367e-007 3.29588e-007 -1.26701e-007 69.453 -86.2817 96.2858 71.7537 41.7453 -73.4002 15.9083 4.69549 13.2513 8.29399e-007 1.14061e-006 1.46621e-006 0.936352 -64.7218 23.3452 30.6584 64.1918 -28.5225 -2.49547 15.1064 -2.43738 1.87463e-006 5.35022e-006 -9.25562e-007 
-21.0989 0.0329341 -23.7894 -90.0402 83.6367 0.0326632 10.1019 6.85298 0.821656 20.3261 13.7432 0.413957 20.3261 13.7432 0.413978 -3.26974 -16.2691 19.6767 -1.23659 -42.1383 7.52101 3.65158 2.87882 40.1035 1.34427 33.0789 -31.2766 48.7428 -31.8003 -57.1873 17.3064 1.06241 11.8116 -0 -1.19271e-015 -0 -1.39149e-015 -3.97569e-016 -0 3.97569e-016 -7.95139e-016 4.77083e-015 -0 -1.19271e-015 -0 -0.0146137 -8.87906e-005 -2.07217e-006 4.87424e-008 -7.79311e-008 -9.14139e-008 -0 -1.19271e-015 -0 -0.0187475 -0.0011749 5.59542e-005 4.92386e-008 -7.77972e-008 -9.14242e-008 -0 -1.19271e-015 -0 -0.0122839 -0.00325215 0.000676511 -1.59028e-015 7.95139e-016 -1.59028e-015 -0 -1.19271e-015 -0 -1.39149e-015 -3.97569e-016 -0 3.97569e-016 -7.95139e-016 4.77083e-015 2.08592 2.54762 12.9469 -11.3417 -35.6973 -60.4392 44.0216 16.0571 -0.077745 16.7648 -2.8399 -2.38292 -4.66352e-008 -8.24154e-008 3.22981e-008 7.77253e-008 1.37359e-007 -5.38302e-008 -4.66352e-008 -8.24154e-008 3.22981e-008 -4.66352e-008 -8.24154e-008 3.22981e-008 0.0149864 -9.24036e-005 3.7305e-006 -4.66352e-008 -8.24112e-008 3.23089e-008 -4.66352e-008 -8.24154e-008 3.22981e-008 0.0190168 -0.00118977 -6.23165e-005 -1.64533e-006 5.30346e-007 -7.10264e-007 -4.66352e-008 -8.24154e-008 3.22981e-008 0.0123089 -0.00325807 -0.000672876 -4.66338e-008 -8.24123e-008 3.23083e-008 -4.66352e-008 -8.24154e-008 3.22981e-008 7.77253e-008 1.37359e-007 -5.38302e-008 -4.66352e-008 -8.24154e-008 3.22981e-008 71.3122 -86.3879 98.0662 71.7756 41.75 -73.4185 15.8339 4.74228 13.3535 8.82781e-032 3.18055e-015 -1.59028e-015 0.990791 -64.8846 23.4204 30.4652 64.0902 -28.3495 -2.48616 15.1166 -2.44761 9.2692e-031 -4.77083e-015 1.11319e-014 
-21.0701 0.0328727 -23.7396 -90.0394 83.887 0.0320288 10.1135 6.75368 0.911692 20.3339 13.5619 0.611358 20.3339 13.562 0.611378 -3.18005 -16.1961 19.5997 -1.28509 -42.0086 7.37078 3.57111 2.79056 39.5939 1.34427 33.0789 -31.2766 48.7941 -31.8662 -57.273 17.3064 1.06241 11.8116 3.97569e-016 3.97569e-016 -4.77083e-015 -3.97569e-016 0 -4.77083e-015 3.97569e-016 3.97569e-016 -6.36111e-015 3.97569e-016 3.97569e-016 -4.77083e-015 -0.0146055 -8.84576e-005 9.33462e-007 7.95139e-016 -3.97569e-016 -1.59028e-015 3.97569e-016 3.97569e-016 -4.77083e-015 -0.0187606 -0.00117602 5.29097e-005 1.59028e-015 7.95139e-016 -3.18055e-015 3.97569e-016 3.97569e-016 -4.77083e-015 -0.0122752 -0.00324917 0.00067476 -9.93923e-016 -7.95139e-016 -0 3.97569e-016 3.97569e-016 -4.77083e-015 -3.97569e-016 0 -4.77083e-015 3.97569e-016 3.97569e-016 -6.36111e-015 2.73122 2.85065 12.3567 -11.3315 -35.7907 -60.3204 43.6565 15.4614 -0.0770443 17.1847 -2.82836 -2.37187 -3.20167e-007 -5.71539e-007 2.28131e-007 -5.29506e-007 -9.45237e-007 3.77293e-007 -3.20167e-007 -5.71538e-007 2.28131e-007 -3.20167e-007 -5.71539e-007 2.28131e-007 0.0150215 -9.07965e-005 5.5465e-006 -3.20167e-007 -5.71509e-007 2.28206e-007 -3.20167e-007 -5.71539e-007 2.28131e-007 0.0190235 -0.00119499 -6.2771e-005 -3.20164e-007 -5.71501e-007 2.28229e-007 -3.20167e-007 -5.71539e-007 2.28131e-007 0.0122726 -0.00325032 -0.000680378 -3.20157e-007 -5.71516e-007 2.28201e-007 -3.20167e-007 -5.71539e-007 2.28131e-007 -5.29506e-007 -9.45237e-007 3.77293e-007 -3.20167e-007 -5.71538e-007 2.28131e-007 73.2787 -86.4904 99.9539 71.7974 41.7547 -73.4368 15.7595 4.78901 13.4556 6.2355e-006 3.21252e-008 -2.6285e-006 1.04619 -65.0474 23.4965 30.2734 63.9883 -28.1779 -2.47685 15.1268 -2.45782 5.38072e-006 8.59784e-006 -2.28918e-007 
-21.0412 0.0328111 -23.6897 -90.0385 84.1372 0.0314428 10.1249 6.65442 1.00177 20.3417 13.3808 0.808803 20.3417 13.3808 0.808815 -3.09022 -16.1231 19.5226 -1.33307 -41.8788 7.22089 3.48988 2.70305 39.0844 1.34426 33.0788 -31.2766 48.8452 -31.9321 -57.3587 17.3064 1.0624 11.8116 -0 0 1.59028e-015 3.97569e-016 0 1.59028e-015 3.97569e-016 7.95139e-016 1.59028e-015 -0 0 1.59028e-015 -0.0146074 -8.86121e-005 -2.07347e-006 1.19271e-015 -7.95139e-016 -0 -0 0 1.59028e-015 -0.0187531 -0.0011758 5.95242e-005 3.97569e-016 -2.54444e-014 -0 -0 0 1.59028e-015 -0.0122601 -0.00324484 0.000676964 3.97569e-016 -1.59028e-015 -0 -0 0 1.59028e-015 3.97569e-016 0 1.59028e-015 3.97569e-016 7.95139e-016 1.59028e-015 3.37937 3.14683 11.7633 -11.3209 -35.884 -60.2015 43.2855 14.8773 -0.0764416 17.6047 -2.81674 -2.36089 -2.68226e-007 -4.83713e-007 1.96483e-007 2.9261e-007 5.27687e-007 -2.14345e-007 -2.68226e-007 -4.83713e-007 1.96483e-007 -2.68226e-007 -4.83713e-007 1.96483e-007 0.0150006 -9.07328e-005 -1.24154e-006 -2.68226e-007 -4.83687e-007 1.96547e-007 -2.68226e-007 -4.83713e-007 1.96483e-007 0.0189902 -0.00119171 -6.03946e-005 -3.61995e-006 3.4919e-007 -2.29656e-006 -2.68226e-007 -4.83713e-007 1.96483e-007 0.0122886 -0.00325296 -0.000675616 -2.68217e-007 -4.83694e-007 1.96543e-007 -2.68226e-007 -4.83713e-007 1.96483e-007 2.9261e-007 5.27687e-007 -2.14345e-007 -2.68226e-007 -4.83713e-007 1.96483e-007 75.3589 -86.5885 101.955 71.8191 41.7594 -73.4551 15.6849 4.83557 13.5579 2.40413e-006 -2.45792e-006 -1.16196e-006 1.10238 -65.2101 23.5734 30.0831 63.8862 -28.0079 -2.46753 15.137 -2.46808 2.24663e-007 -3.71785e-006 -4.82864e-007 
